<svg xmlns="http://www.w3.org/2000/svg" viewBox="0 0 760 380" font-family="system-ui,-apple-system,'Segoe UI',sans-serif"><text x="46" y="22" fill="#898781" font-size="14" font-weight="600">Generacion FV mensual: esperada (irradiancia real) vs modelada (sim actual) — kWh</text><rect x="536" y="12" width="11" height="11" rx="2" fill="#2a78d6"/><text x="551" y="22" fill="#898781" font-size="12">esperada</text><rect x="626" y="12" width="11" height="11" rx="2" fill="#eb6834"/><text x="641" y="22" fill="#898781" font-size="12">modelada</text><line x1="46" y1="350" x2="746" y2="350" stroke="#c3c2b7" stroke-width="1" opacity="0.5"/><text x="40" y="354" fill="#898781" font-size="11" text-anchor="end" font-variant-numeric="tabular-nums">0</text><line x1="46" y1="289.2" x2="746" y2="289.2" stroke="#c3c2b7" stroke-width="1" opacity="0.5"/><text x="40" y="293.2" fill="#898781" font-size="11" text-anchor="end" font-variant-numeric="tabular-nums">500</text><line x1="46" y1="228.39999999999998" x2="746" y2="228.39999999999998" stroke="#c3c2b7" stroke-width="1" opacity="0.5"/><text x="40" y="232.39999999999998" fill="#898781" font-size="11" text-anchor="end" font-variant-numeric="tabular-nums">1000</text><line x1="46" y1="167.6" x2="746" y2="167.6" stroke="#c3c2b7" stroke-width="1" opacity="0.5"/><text x="40" y="171.6" fill="#898781" font-size="11" text-anchor="end" font-variant-numeric="tabular-nums">1500</text><line x1="46" y1="106.79999999999998" x2="746" y2="106.79999999999998" stroke="#c3c2b7" stroke-width="1" opacity="0.5"/><text x="40" y="110.79999999999998" fill="#898781" font-size="11" text-anchor="end" font-variant-numeric="tabular-nums">2000</text><line x1="46" y1="46" x2="746" y2="46" stroke="#c3c2b7" stroke-width="1" opacity="0.5"/><text x="40" y="50" fill="#898781" font-size="11" text-anchor="end" font-variant-numeric="tabular-nums">2500</text><rect x="57.7" y="101.0" width="15" height="249.0" rx="3" fill="#2a78d6"/><rect x="77.7" y="57.3" width="15" height="292.7" rx="3" fill="#eb6834"/><text x="75.2" y="366" fill="#898781" font-size="11" text-anchor="middle">Ene</text><rect x="116.0" y="145.4" width="15" height="204.6" rx="3" fill="#2a78d6"/><rect x="136.0" y="85.6" width="15" height="264.4" rx="3" fill="#eb6834"/><text x="133.5" y="366" fill="#898781" font-size="11" text-anchor="middle">Feb</text><rect x="174.3" y="141.9" width="15" height="208.1" rx="3" fill="#2a78d6"/><rect x="194.3" y="57.3" width="15" height="292.7" rx="3" fill="#eb6834"/><text x="191.8" y="366" fill="#898781" font-size="11" text-anchor="middle">Mar</text><rect x="232.7" y="155.8" width="15" height="194.2" rx="3" fill="#2a78d6"/><rect x="252.7" y="66.7" width="15" height="283.3" rx="3" fill="#eb6834"/><text x="250.2" y="366" fill="#898781" font-size="11" text-anchor="middle">Abr</text><rect x="291.0" y="159.8" width="15" height="190.2" rx="3" fill="#2a78d6"/><rect x="311.0" y="57.3" width="15" height="292.7" rx="3" fill="#eb6834"/><text x="308.5" y="366" fill="#898781" font-size="11" text-anchor="middle">May</text><rect x="349.3" y="163.5" width="15" height="186.5" rx="3" fill="#2a78d6"/><rect x="369.3" y="66.7" width="15" height="283.3" rx="3" fill="#eb6834"/><text x="366.8" y="366" fill="#898781" font-size="11" text-anchor="middle">Jun</text><rect x="407.7" y="125.7" width="15" height="224.3" rx="3" fill="#2a78d6"/><rect x="427.7" y="57.3" width="15" height="292.7" rx="3" fill="#eb6834"/><text x="425.2" y="366" fill="#898781" font-size="11" text-anchor="middle">Jul</text><rect x="466.0" y="148.9" width="15" height="201.1" rx="3" fill="#2a78d6"/><rect x="486.0" y="57.3" width="15" height="292.7" rx="3" fill="#eb6834"/><text x="483.5" y="366" fill="#898781" font-size="11" text-anchor="middle">Ago</text><rect x="524.3" y="160.6" width="15" height="189.4" rx="3" fill="#2a78d6"/><rect x="544.3" y="66.7" width="15" height="283.3" rx="3" fill="#eb6834"/><text x="541.8" y="366" fill="#898781" font-size="11" text-anchor="middle">Sep</text><rect x="582.7" y="160.4" width="15" height="189.6" rx="3" fill="#2a78d6"/><rect x="602.7" y="57.3" width="15" height="292.7" rx="3" fill="#eb6834"/><text x="600.2" y="366" fill="#898781" font-size="11" text-anchor="middle">Oct</text><rect x="641.0" y="154.8" width="15" height="195.2" rx="3" fill="#2a78d6"/><rect x="661.0" y="66.7" width="15" height="283.3" rx="3" fill="#eb6834"/><text x="658.5" y="366" fill="#898781" font-size="11" text-anchor="middle">Nov</text><rect x="699.3" y="118.0" width="15" height="232.0" rx="3" fill="#2a78d6"/><rect x="719.3" y="57.3" width="15" height="292.7" rx="3" fill="#eb6834"/><text x="716.8" y="366" fill="#898781" font-size="11" text-anchor="middle">Dic</text></svg>